<svg width="17" height="19" viewBox="0 0 17 19" fill="none" xmlns="http://www.w3.org/2000/svg">
<path d="M11.5561 2.12995e-06C11.944 -0.000939703 12.2506 0.310571 12.2515 0.725919L12.2524 1.4339C14.769 1.6378 16.4313 3.41058 16.434 6.12922L16.4439 14.0869C16.4475 17.051 14.6463 18.8747 11.7591 18.8795L4.70652 18.8889C1.83734 18.8927 0.0135418 17.0255 0.00993386 14.0529L6.05447e-06 6.18869C-0.00359577 3.45211 1.60012 1.68405 4.11663 1.44523L4.11573 0.737247C4.11482 0.321899 4.41248 0.009444 4.80934 0.009444C5.20621 0.00850002 5.50387 0.320011 5.50477 0.735359L5.50567 1.39614L10.8634 1.38859L10.8625 0.727807C10.8616 0.312459 11.1593 0.000948242 11.5561 2.12995e-06ZM11.9241 13.4035H11.9151C11.5002 13.4139 11.1674 13.7735 11.1764 14.2077C11.1773 14.642 11.5119 14.9997 11.9268 15.0092C12.3499 15.0082 12.6926 14.6486 12.6917 14.2049C12.6917 13.7612 12.3481 13.4035 11.9241 13.4035ZM4.49185 13.4044C4.07694 13.4233 3.75223 13.7829 3.75313 14.2172C3.77207 14.6514 4.11482 14.9912 4.52973 14.9714C4.93652 14.9525 5.26033 14.5929 5.24139 14.1587C5.23237 13.7339 4.89774 13.4035 4.49185 13.4044ZM8.20799 13.3997C7.79308 13.4195 7.46927 13.7782 7.46927 14.2125C7.48821 14.6467 7.83096 14.9856 8.24587 14.9667C8.65176 14.9469 8.97647 14.5882 8.95753 14.153C8.94851 13.7291 8.61388 13.3988 8.20799 13.3997ZM4.48734 10.0061C4.07243 10.025 3.74862 10.3846 3.74952 10.8189C3.76756 11.2531 4.11122 11.5929 4.52612 11.5731C4.93201 11.5542 5.25582 11.1946 5.23688 10.7603C5.22786 10.3356 4.89413 10.0052 4.48734 10.0061ZM8.20438 9.97307C7.78947 9.99195 7.46476 10.3516 7.46566 10.7858C7.4837 11.2201 7.82735 11.5589 8.24226 11.5401C8.64815 11.5202 8.97196 11.1615 8.95392 10.7273C8.944 10.3025 8.61027 9.97213 8.20438 9.97307ZM11.9205 9.97779C11.5056 9.98724 11.1809 10.3365 11.1818 10.7707V10.7811C11.1908 11.2153 11.5336 11.5448 11.9494 11.5353C12.3553 11.525 12.6791 11.1653 12.6701 10.7311C12.6511 10.3157 12.3255 9.97685 11.9205 9.97779ZM10.8652 2.84231L5.50747 2.84986L5.50838 3.61353C5.50838 4.02038 5.21163 4.34133 4.81476 4.34133C4.41789 4.34228 4.11933 4.02227 4.11933 3.61542L4.11843 2.88856C2.35958 3.07075 1.38635 4.13932 1.38905 6.1868L1.38996 6.48038L15.0459 6.4615V6.13111C15.0071 4.10157 14.0221 3.03676 12.2542 2.87818L12.2552 3.60504C12.2552 4.01094 11.9494 4.33284 11.5615 4.33284C11.1647 4.33378 10.8661 4.01283 10.8661 3.60692L10.8652 2.84231Z" fill="#15B987"/>
</svg>
